<?xml version="1.0" standalone="no"?>
<!DOCTYPE svg PUBLIC "-//W3C//DTD SVG 20010904//EN"
 "http://www.w3.org/TR/2001/REC-SVG-20010904/DTD/svg10.dtd">
<svg version="1.0" xmlns="http://www.w3.org/2000/svg"
 width="512.000000pt" height="512.000000pt" viewBox="0 0 512.000000 512.000000"
 preserveAspectRatio="xMidYMid meet">
<metadata>
Created by potrace 1.14, written by Peter Selinger 2001-2017
</metadata>
<g transform="translate(0.000000,512.000000) scale(0.100000,-0.100000)"
fill="#000000" stroke="none">
<path d="M2655 5099 c-28 -19 -221 -138 -540 -333 -77 -47 -529 -326 -1005
-619 l-865 -533 -3 -305 -2 -305 252 -158 c139 -87 269 -169 288 -181 102 -66
211 -135 215 -135 2 0 30 -17 62 -39 32 -21 87 -56 123 -78 36 -21 379 -236
763 -477 384 -240 704 -439 712 -442 8 -4 73 83 185 247 l173 252 -24 18 c-13
10 -37 26 -54 34 -16 9 -50 29 -75 45 -25 16 -70 43 -100 61 -30 18 -66 40
-80 49 -14 8 -52 31 -84 50 -95 58 -115 70 -345 210 -122 74 -236 144 -255
155 -19 11 -68 40 -108 65 -40 25 -77 47 -82 49 -6 2 -59 35 -118 72 -60 38
-111 69 -113 69 -2 0 -41 23 -87 52 -46 28 -197 120 -337 205 -139 84 -262
159 -273 167 -17 12 56 59 864 544 486 292 930 558 988 593 92 55 278 168 289
176 2 2 -3 11 -12 21 -10 10 -17 21 -17 24 0 3 -36 62 -80 130 -44 67 -94 147
-112 177 -18 29 -41 65 -50 80 -10 14 -24 38 -33 54 -18 32 -21 32 -60 6z"/>
<path d="M2443 3582 c-17 -26 -66 -96 -108 -157 -85 -123 -188 -274 -198 -291
-6 -11 34 -37 231 -155 15 -9 137 -83 272 -166 135 -83 351 -214 480 -293 129
-79 251 -153 270 -166 19 -12 76 -47 125 -77 422 -256 696 -424 729 -444 l39
-25 -164 -99 c-90 -54 -171 -102 -179 -106 -8 -4 -53 -30 -100 -58 -47 -29
-310 -186 -585 -350 -871 -519 -1120 -668 -1129 -676 -4 -4 9 -35 30 -69 22
-34 44 -69 49 -78 23 -38 120 -193 174 -277 32 -50 63 -89 70 -87 7 1 102 57
212 125 110 67 270 165 357 218 86 53 216 132 287 176 72 44 225 137 340 208
579 353 1118 683 1181 722 l71 44 -1 306 -1 306 -75 48 c-41 26 -120 76 -175
110 -159 100 -1196 754 -1697 1070 -252 159 -461 289 -465 289 -5 0 -22 -22
-40 -48z"/>
</g>
</svg>
